<svg width="48" height="47" viewBox="0 0 48 47" fill="none" xmlns="http://www.w3.org/2000/svg">
<path d="M14.4 37.6C11.76 37.6 9.624 39.715 9.624 42.3C9.624 44.885 11.76 47 14.4 47C17.04 47 19.2 44.885 19.2 42.3C19.2 39.715 17.04 37.6 14.4 37.6ZM0 0V4.7H4.8L13.44 22.5365L10.2 28.294C9.816 28.952 9.6 29.7275 9.6 30.55C9.6 33.135 11.76 35.25 14.4 35.25H43.2V30.55H15.408C15.072 30.55 14.808 30.2915 14.808 29.9625L14.88 29.6805L17.04 25.85H34.92C36.72 25.85 38.304 24.8865 39.12 23.4295L47.712 8.178C47.904 7.849 48 7.4495 48 7.05C48 5.7575 46.92 4.7 45.6 4.7H10.104L7.848 0H0ZM38.4 37.6C35.76 37.6 33.624 39.715 33.624 42.3C33.624 44.885 35.76 47 38.4 47C41.04 47 43.2 44.885 43.2 42.3C43.2 39.715 41.04 37.6 38.4 37.6Z" fill="#333333"/>
</svg>
