<svg width="57" height="45" viewBox="0 0 57 45" fill="none" xmlns="http://www.w3.org/2000/svg">
<path d="M56.3112 35.0027C49.0675 28.1071 39.2825 23.86 28.5 23.86C17.7175 23.86 7.9325 28.1071 0.68875 35.0027C0.26125 35.4321 0 36.0286 0 36.6967C0 37.3648 0.26125 37.9613 0.68875 38.3908L6.57875 44.3081C7.00625 44.7375 7.6 45 8.265 45C8.90625 45 9.5 44.7375 9.9275 44.3319C11.8037 42.5663 13.9413 41.087 16.245 39.9178C17.0288 39.5361 17.575 38.7248 17.575 37.7704V30.3738C21.0188 29.2285 24.7 28.632 28.5 28.632C32.3 28.632 35.9812 29.2285 39.425 30.3499V37.7466C39.425 38.6771 39.9713 39.5122 40.755 39.894C43.0825 41.0631 45.1962 42.5663 47.0725 44.3081C47.5 44.7375 48.0938 44.9761 48.735 44.9761C49.4 44.9761 49.9937 44.7137 50.4212 44.2842L56.3112 38.3669C56.7387 37.9374 57 37.3409 57 36.6729C57 36.0286 56.7387 35.4321 56.3112 35.0027ZM50.255 10.1644L46.9062 6.80011L38.4513 15.2704L41.8 18.6347C41.8 18.6347 49.9938 10.2359 50.255 10.1644ZM30.875 0H26.125V11.93H30.875V0ZM15.2 18.6347L18.5487 15.2704L10.1175 6.77625L6.745 10.1644C7.00625 10.2359 15.2 18.6347 15.2 18.6347Z" fill="#333333"/>
</svg>
